<?xml version="1.0" standalone="no"?>
<!DOCTYPE svg PUBLIC "-//W3C//DTD SVG 20010904//EN"
 "http://www.w3.org/TR/2001/REC-SVG-20010904/DTD/svg10.dtd">
<svg version="1.0" xmlns="http://www.w3.org/2000/svg"
 width="1771.000000pt" height="1756.000000pt" viewBox="0 0 1771.000000 1756.000000"
 preserveAspectRatio="xMidYMid meet">
<metadata>
Created by potrace 1.11, written by Peter Selinger 2001-2013
</metadata>
<g transform="translate(0.000000,1756.000000) scale(0.100000,-0.100000)"
fill="#000000" stroke="none">
<path d="M8180 17534 c-1337 -118 -2521 -662 -3464 -1592 -1067 -1053 -1655
-2458 -1656 -3957 0 -432 47 -867 136 -1242 13 -57 24 -105 24 -108 0 -3 -60
-35 -132 -71 -1063 -531 -1957 -1424 -2487 -2482 -394 -786 -590 -1616 -591
-2497 -1 -1082 295 -2096 880 -3015 712 -1118 1853 -1974 3123 -2341 529 -153
1008 -221 1562 -221 454 0 811 38 1235 134 698 156 1408 471 1967 870 l84 60
52 -37 c739 -530 1647 -882 2552 -989 332 -40 792 -51 1095 -26 1354 109 2569
668 3520 1620 881 880 1430 1996 1589 3230 57 445 56 999 -4 1450 -119 899
-466 1771 -1001 2515 -609 846 -1478 1528 -2434 1911 -80 31 -146 58 -146 58
-1 1 9 57 22 126 33 174 71 468 84 642 14 190 14 632 0 812 -60 756 -249 1439
-582 2101 -612 1216 -1650 2166 -2918 2673 -518 206 -1043 328 -1625 377 -208
18 -683 17 -885 -1z m825 -749 c732 -58 1408 -267 2034 -627 1301 -750 2190
-2083 2375 -3563 42 -335 47 -849 11 -1150 -17 -141 -61 -414 -67 -421 -2 -2
-74 10 -159 26 -665 129 -1372 134 -2044 14 -1131 -202 -2165 -748 -2977
-1570 -547 -555 -941 -1161 -1237 -1906 -24 -60 -44 -108 -46 -108 -10 0 -149
57 -245 100 -781 354 -1454 908 -1951 1607 -802 1128 -1077 2532 -764 3893
138 600 407 1192 778 1710 253 353 590 706 927 971 757 596 1643 945 2600
1024 213 17 549 17 765 0z m3510 -6400 c732 -58 1408 -267 2034 -627 1301
-750 2190 -2083 2375 -3563 42 -332 47 -850 12 -1145 -93 -774 -338 -1463
-743 -2087 -465 -718 -1129 -1315 -1878 -1690 -525 -263 -1040 -416 -1645
-489 -185 -22 -675 -30 -878 -15 -854 66 -1611 325 -2331 798 -2 1 46 54 107
118 290 301 514 585 723 915 489 771 781 1654 849 2572 14 190 14 632 0 812
-60 756 -249 1439 -582 2101 -256 509 -551 923 -976 1373 l-122 130 92 59
c646 416 1411 673 2198 738 213 17 549 17 765 0z m-8880 -874 c274 -555 619
-1035 1060 -1476 810 -810 1834 -1343 2960 -1544 345 -61 598 -83 970 -83 544
0 1019 64 1508 203 76 22 142 37 146 35 9 -6 12 -19 46 -201 60 -323 79 -582
72 -964 -11 -619 -113 -1125 -342 -1706 -419 -1059 -1272 -1988 -2300 -2502
-525 -263 -1040 -416 -1645 -489 -185 -22 -675 -30 -878 -15 -499 39 -938 137
-1392 311 -874 337 -1643 935 -2191 1707 -802 1128 -1077 2532 -764 3893 138
600 407 1192 778 1710 150 209 281 364 476 563 361 369 762 667 1205 898 l110
57 44 -105 c25 -58 86 -189 137 -292z m5294 -463 c372 -348 741 -853 981
-1343 99 -201 151 -329 137 -336 -23 -13 -232 -68 -367 -98 -333 -73 -579
-101 -948 -108 -309 -6 -492 3 -752 38 -139 18 -349 55 -356 62 -8 7 92 242
180 422 187 384 420 739 695 1055 63 73 352 370 360 370 2 0 33 -28 70 -62z"/>
<path d="M8265 16065 c-848 -81 -1616 -401 -2270 -947 -219 -182 -476 -454
-651 -688 -644 -859 -923 -1949 -774 -3021 60 -430 183 -831 375 -1224 327
-670 802 -1212 1424 -1626 90 -60 169 -109 175 -109 7 0 27 30 45 68 60 121
191 344 306 517 523 792 1211 1450 2035 1945 194 116 654 344 868 429 875 346
1758 491 2697 441 105 -6 201 -13 214 -16 l24 -5 -6 243 c-6 247 -21 411 -58
618 -173 980 -689 1853 -1464 2479 -613 494 -1315 789 -2115 886 -189 23 -630
28 -825 10z"/>
<path d="M11775 9665 c-357 -34 -755 -125 -1062 -241 -64 -24 -118 -46 -121
-48 -2 -3 23 -40 55 -83 462 -613 838 -1416 1037 -2218 120 -486 176 -956 176
-1495 0 -829 -142 -1572 -447 -2340 -79 -200 -269 -593 -382 -791 -85 -148
-286 -456 -384 -589 -30 -41 -52 -78 -49 -81 13 -13 258 -99 382 -134 697
-201 1374 -222 2071 -65 628 141 1213 431 1709 844 231 193 399 365 584 596
462 578 754 1253 856 1980 59 421 52 883 -21 1290 -173 980 -689 1853 -1464
2479 -613 494 -1315 789 -2115 886 -189 23 -630 28 -825 10z"/>
<path d="M3055 8808 c-226 -181 -428 -375 -601 -578 -757 -890 -1096 -2059
-934 -3221 60 -430 183 -831 375 -1224 326 -666 802 -1212 1415 -1620 425
-283 869 -474 1360 -584 618 -140 1205 -140 1821 -1 628 141 1213 431 1709
844 231 193 399 365 584 596 587 734 895 1616 896 2564 l0 199 -37 -7 c-265
-44 -526 -66 -878 -73 -777 -15 -1424 82 -2130 319 -1330 446 -2457 1309
-3237 2480 -57 85 -132 205 -168 266 -36 61 -70 112 -75 112 -6 0 -51 -32
-100 -72z"/>
<path d="M8776 8500 c-36 -11 -72 -44 -145 -134 -76 -95 -231 -316 -262 -374
-13 -26 -26 -49 -29 -52 -16 -14 -90 -171 -90 -189 0 -35 45 -124 80 -158 44
-43 73 -46 380 -46 246 -1 303 4 530 40 128 20 138 26 184 119 33 66 34 120 1
179 -14 25 -36 65 -50 90 -57 105 -149 235 -283 404 -89 111 -123 131 -222
130 -36 0 -78 -5 -94 -9z"/>
</g>
</svg>
